<?xml version="1.0" standalone="no"?><!DOCTYPE svg PUBLIC "-//W3C//DTD SVG 1.1//EN" "http://www.w3.org/Graphics/SVG/1.1/DTD/svg11.dtd"><svg t="1608600602409" class="icon" viewBox="0 0 1024 1024" version="1.1" xmlns="http://www.w3.org/2000/svg" p-id="1628" xmlns:xlink="http://www.w3.org/1999/xlink" width="200" height="200"><defs><style type="text/css"></style></defs><path d="M277.333333 213.333333v607.146667a42.666667 42.666667 0 0 0 42.666667 42.666667H384a42.666667 42.666667 0 0 0 42.666667-42.666667V213.333333a42.666667 42.666667 0 0 0-42.666667-42.666666H320a42.666667 42.666667 0 0 0-42.666667 42.666666zM597.333333 213.333333v607.146667a42.666667 42.666667 0 0 0 42.666667 42.666667h64a42.666667 42.666667 0 0 0 42.666667-42.666667V213.333333a42.666667 42.666667 0 0 0-42.666667-42.666666H640a42.666667 42.666667 0 0 0-42.666667 42.666666z" fill="#000000" p-id="1629"></path></svg>