<?xml version="1.0" encoding="UTF-8"?>
<svg width="220px" height="176px" viewBox="0 0 220 176" version="1.1" xmlns="http://www.w3.org/2000/svg" xmlns:xlink="http://www.w3.org/1999/xlink">
    <!-- Generator: Sketch 60.1 (88133) - https://sketch.com -->
    <title>vol0</title>
    <desc>Created with Sketch.</desc>
    <g id="Page-1" stroke="none" stroke-width="1" fill="none" fill-rule="evenodd">
        <g id="vol0" transform="translate(0.000000, 0.500000)" fill="#000000" fill-rule="nonzero">
            <path d="M41.638,52.75 L9.013,52.75 C6.65197684,52.7269976 4.37464604,53.6235845 2.663,55.25 C0.979079489,56.8547567 0.0181502039,59.0739512 0,61.4 L0,113.575 C0,118.349 4.038,122.237 9.013,122.237 L41.163,122.237 L99,171.525 C106.487,177.9 112.5,175.25 112.5,165.65 L112.5,9.325 C112.5,-0.275 106.475,-2.888 99.05,3.487 L41.612,52.737 L41.638,52.75 Z M193.3125,87.8125 L217.0625,64.0625 C220.8125,60.3125 220.8125,54.0625 217.0625,50.3125 C213.3125,46.5625 207.0625,46.5625 203.3125,50.3125 L179.5625,74.0625 L155.8125,50.3125 C152.0625,46.5625 145.8125,46.5625 142.0625,50.3125 C138.3125,54.0625 138.3125,60.3125 142.0625,64.0625 L164.5625,87.8125 L140.8125,111.5625 C137.0625,115.3125 137.0625,121.5625 140.8125,125.3125 C144.5625,129.0625 150.8125,129.0625 154.5625,125.3125 L178.3125,101.5625 L202.0625,125.3125 C205.8125,129.0625 212.0625,129.0625 215.8125,125.3125 C219.5625,121.5625 219.5625,115.3125 215.8125,111.5625 L193.3125,87.8125 Z" id="Shape"></path>
        </g>
    </g>
</svg>