<?xml version="1.0" encoding="UTF-8"?>
<svg width="176px" height="176px" viewBox="0 0 176 176" version="1.1" xmlns="http://www.w3.org/2000/svg" xmlns:xlink="http://www.w3.org/1999/xlink">
    <!-- Generator: Sketch 60.1 (88133) - https://sketch.com -->
    <title>vol1</title>
    <desc>Created with Sketch.</desc>
    <g id="Page-1" stroke="none" stroke-width="1" fill="none" fill-rule="evenodd">
        <g id="vol1" transform="translate(0.000000, 0.500000)" fill="#000000" fill-rule="nonzero">
            <path d="M157.075,132.875 C154.994655,135.162829 152.042225,136.461898 148.95,136.450081 C146.284606,136.450081 143.710826,135.477374 141.713,133.713 C137.303,129.862 136.85,123.166 140.699,118.756 L140.849,118.588 C168.012,88.662 143.674,59.6 140.812,56.388 C136.901,52.013 137.277,45.296 141.652,41.385 C141.688198,41.352139 141.724868,41.3198023 141.762,41.288 C146.253,37.37 153.051,37.752 157.075,42.15 C171.313,57.837 189.625,96.987 157.075,132.875 L157.075,132.875 Z M41.638,52.75 L9.013,52.75 C6.65197684,52.7269976 4.37464604,53.6235845 2.663,55.25 C0.979079489,56.8547567 0.0181502039,59.0739512 0,61.4 L0,113.575 C0,118.349 4.038,122.237 9.013,122.237 L41.163,122.237 L99,171.525 C106.487,177.9 112.5,175.25 112.5,165.65 L112.5,9.325 C112.5,-0.275 106.475,-2.888 99.05,3.487 L41.612,52.737 L41.638,52.75 Z" id="Shape"></path>
        </g>
    </g>
</svg>