<?xml version="1.0" encoding="UTF-8"?>
<svg width="220px" height="176px" viewBox="0 0 220 176" version="1.1" xmlns="http://www.w3.org/2000/svg" xmlns:xlink="http://www.w3.org/1999/xlink">
    <!-- Generator: Sketch 60.1 (88133) - https://sketch.com -->
    <title>vol2</title>
    <desc>Created with Sketch.</desc>
    <g id="Page-1" stroke="none" stroke-width="1" fill="none" fill-rule="evenodd">
        <g id="vol2" transform="translate(0.000000, 0.500000)" fill="#000000" fill-rule="nonzero">
            <path d="M157.075,132.875 C154.994655,135.162829 152.042225,136.461898 148.95,136.450081 C146.284606,136.450081 143.710826,135.477374 141.713,133.713 C137.303,129.862 136.85,123.166 140.699,118.756 L140.849,118.588 C168.012,88.662 143.674,59.6 140.812,56.388 C136.901,52.013 137.277,45.296 141.652,41.385 C141.688198,41.352139 141.724868,41.3198023 141.762,41.288 C146.253,37.37 153.051,37.752 157.075,42.15 C171.313,57.837 189.625,96.987 157.075,132.875 L157.075,132.875 Z M189.938,161.537 C187.85803,163.825351 184.905357,165.124528 181.813,165.11209 C179.144645,165.119531 176.56579,164.150238 174.563,162.387 C170.157,158.533 169.709,151.836 173.563,147.429 L173.713,147.262 C227.313,88.187 175.925,30.199 173.713,27.762 C169.77,23.435 170.08,16.731 174.406,12.787 C174.462,12.736 174.517,12.686 174.575,12.637 C179.072,8.693 185.896,9.065 189.937,13.474 C190.6,14.225 256.338,88.35 189.938,161.537 L189.938,161.537 Z M41.638,52.75 L9.013,52.75 C6.65197684,52.7269976 4.37464604,53.6235845 2.663,55.25 C0.979079489,56.8547567 0.0181502039,59.0739512 0,61.4 L0,113.575 C0,118.349 4.038,122.237 9.013,122.237 L41.163,122.237 L99,171.525 C106.487,177.9 112.5,175.25 112.5,165.65 L112.5,9.325 C112.5,-0.275 106.475,-2.888 99.05,3.487 L41.612,52.737 L41.638,52.75 Z" id="Shape"></path>
        </g>
    </g>
</svg>